<svg width="616" height="387" viewBox="0 0 616 387" fill="none" xmlns="http://www.w3.org/2000/svg">
<rect x="8" y="0.512207" width="600" height="137.195" rx="43.9024" fill="#FCFCFC"/>
<rect x="123.244" y="38.9268" width="204.878" height="25.6098" rx="7.31707" fill="url(#paint0_linear_478_660)"/>
<rect x="123.244" y="75.5122" width="455.488" height="25.6098" rx="7.31707" fill="url(#paint1_linear_478_660)"/>
<rect x="37.2681" y="35.2683" width="71.3415" height="69.5122" rx="10.9756" fill="url(#paint2_linear_478_660)"/>
<rect x="8" y="249.293" width="600" height="137.195" rx="43.9024" fill="#FCFCFC"/>
<rect x="123.244" y="287.707" width="204.878" height="25.6098" rx="7.31707" fill="url(#paint3_linear_478_660)"/>
<rect x="123.244" y="324.293" width="455.488" height="25.6098" rx="7.31707" fill="url(#paint4_linear_478_660)"/>
<rect x="37.2681" y="284.049" width="71.3415" height="69.5122" rx="10.9756" fill="url(#paint5_linear_478_660)"/>
<g filter="url(#filter0_d_478_660)">
<rect x="8" y="124.902" width="600" height="137.195" rx="43.9024" fill="#2B2B2B"/>
<rect x="37.2681" y="159.659" width="69.5122" height="69.5122" rx="10.9756" fill="url(#paint6_linear_478_660)"/>
<path d="M91.0086 191.97C93.6496 192.572 95.9768 194.126 97.5461 196.336C99.1153 198.545 99.817 201.255 99.5171 203.949C99.2172 206.643 97.9368 209.132 95.9201 210.942C93.9034 212.752 91.2916 213.755 88.5828 213.761H58.2606C54.8426 213.765 51.5452 212.497 49.0086 210.205C46.472 207.912 44.8772 204.758 44.5337 201.355C44.1902 197.953 45.1225 194.543 47.1497 191.79C49.1769 189.036 52.1544 187.134 55.504 186.453V186.178C55.5023 184.719 55.886 183.285 56.6162 182.023C57.3465 180.76 58.3973 179.713 59.6622 178.988C60.9272 178.262 62.3612 177.885 63.8191 177.893C65.2769 177.901 66.7068 178.294 67.9637 179.033C69.898 177.121 72.3563 175.826 75.0269 175.314C77.6974 174.801 80.46 175.094 82.9641 176.155C85.4681 177.216 87.601 178.997 89.0921 181.272C90.5832 183.548 91.3653 186.215 91.3393 188.936C91.3393 189.984 91.2291 190.977 91.0086 191.97Z" fill="url(#paint7_linear_478_660)"/>
<g filter="url(#filter1_d_478_660)">
<g filter="url(#filter2_d_478_660)">
<path d="M66.8311 191.631C69.4339 191.631 71.6446 193.306 72.4473 195.636H81.2334C82.2958 195.636 83.1571 196.509 83.1572 197.571C83.1572 198.633 82.2959 199.505 81.2334 199.505H72.4473C71.6447 201.836 69.4341 203.511 66.8311 203.511C63.5508 203.511 60.8916 200.851 60.8916 197.571C60.8918 194.291 63.5509 191.632 66.8311 191.631ZM66.8311 195.789C65.847 195.789 65.049 196.587 65.0488 197.571C65.0488 198.555 65.8469 199.353 66.8311 199.353C67.8153 199.353 68.6133 198.555 68.6133 197.571C68.6131 196.587 67.8152 195.789 66.8311 195.789Z" fill="white"/>
</g>
<g filter="url(#filter3_d_478_660)">
<path d="M76.7764 200.32H80.7815V201.957C80.7815 202.665 80.2073 203.239 79.499 203.239H78.0589C77.3506 203.239 76.7764 202.665 76.7764 201.957V200.32Z" fill="white"/>
</g>
</g>
<path d="M136.286 174.468V177.134H125.93V174.468H136.286ZM126.76 166.322V185.829H123.397V166.322H126.76ZM138.872 166.322V185.829H135.523V166.322H138.872ZM145.592 171.333V185.829H142.35V171.333H145.592ZM142.136 167.528C142.136 167.036 142.297 166.63 142.618 166.308C142.949 165.978 143.404 165.813 143.985 165.813C144.556 165.813 145.007 165.978 145.338 166.308C145.668 166.63 145.834 167.036 145.834 167.528C145.834 168.01 145.668 168.412 145.338 168.733C145.007 169.055 144.556 169.216 143.985 169.216C143.404 169.216 142.949 169.055 142.618 168.733C142.297 168.412 142.136 168.01 142.136 167.528ZM157.551 182.828V165.25H160.794V185.829H157.86L157.551 182.828ZM148.119 178.742V178.46C148.119 177.362 148.249 176.361 148.508 175.459C148.767 174.548 149.142 173.767 149.633 173.115C150.125 172.454 150.723 171.949 151.429 171.601C152.134 171.243 152.929 171.065 153.813 171.065C154.689 171.065 155.457 171.234 156.118 171.574C156.779 171.913 157.342 172.4 157.806 173.034C158.27 173.659 158.641 174.41 158.918 175.285C159.195 176.151 159.391 177.116 159.508 178.179V179.077C159.391 180.113 159.195 181.06 158.918 181.917C158.641 182.775 158.27 183.516 157.806 184.141C157.342 184.766 156.774 185.249 156.104 185.588C155.444 185.928 154.671 186.097 153.787 186.097C152.911 186.097 152.121 185.914 151.415 185.548C150.718 185.182 150.125 184.668 149.633 184.007C149.142 183.346 148.767 182.569 148.508 181.676C148.249 180.774 148.119 179.796 148.119 178.742ZM151.348 178.46V178.742C151.348 179.403 151.406 180.019 151.522 180.591C151.647 181.162 151.839 181.667 152.098 182.105C152.358 182.533 152.692 182.873 153.103 183.123C153.523 183.364 154.023 183.485 154.604 183.485C155.336 183.485 155.939 183.324 156.413 183.002C156.886 182.681 157.257 182.248 157.525 181.703C157.802 181.149 157.989 180.533 158.087 179.854V177.429C158.034 176.902 157.922 176.411 157.752 175.955C157.592 175.499 157.373 175.102 157.096 174.763C156.819 174.414 156.475 174.146 156.064 173.959C155.662 173.762 155.184 173.664 154.631 173.664C154.041 173.664 153.541 173.789 153.13 174.039C152.719 174.289 152.38 174.633 152.112 175.071C151.853 175.508 151.661 176.017 151.536 176.598C151.411 177.179 151.348 177.799 151.348 178.46ZM170.14 186.097C169.068 186.097 168.099 185.923 167.233 185.575C166.375 185.217 165.643 184.722 165.036 184.088C164.437 183.453 163.977 182.708 163.656 181.85C163.334 180.993 163.173 180.068 163.173 179.077V178.541C163.173 177.406 163.338 176.379 163.669 175.459C163.999 174.539 164.459 173.753 165.049 173.101C165.638 172.44 166.335 171.936 167.139 171.587C167.943 171.239 168.814 171.065 169.752 171.065C170.788 171.065 171.694 171.239 172.471 171.587C173.248 171.936 173.892 172.427 174.401 173.061C174.919 173.686 175.303 174.432 175.553 175.298C175.812 176.165 175.941 177.121 175.941 178.166V179.546H164.741V177.228H172.753V176.973C172.735 176.393 172.619 175.848 172.404 175.339C172.199 174.83 171.882 174.419 171.453 174.106C171.024 173.793 170.453 173.637 169.738 173.637C169.202 173.637 168.724 173.753 168.305 173.985C167.894 174.209 167.55 174.535 167.273 174.964C166.996 175.392 166.782 175.91 166.63 176.518C166.487 177.116 166.416 177.79 166.416 178.541V179.077C166.416 179.711 166.5 180.3 166.67 180.845C166.849 181.381 167.108 181.85 167.447 182.252C167.787 182.654 168.197 182.971 168.68 183.203C169.162 183.427 169.711 183.538 170.328 183.538C171.105 183.538 171.797 183.382 172.404 183.069C173.012 182.757 173.539 182.315 173.985 181.743L175.687 183.391C175.374 183.846 174.968 184.284 174.468 184.704C173.967 185.115 173.356 185.45 172.632 185.709C171.918 185.968 171.087 186.097 170.14 186.097ZM184.538 176.21V178.782H177.45V176.21H184.538ZM193.951 182.265L199.082 166.322H202.794L195.8 185.829H193.294L193.951 182.265ZM189.208 166.322L194.299 182.265L194.996 185.829H192.477L185.51 166.322H189.208ZM211.966 178.554H206.888V175.888H211.966C212.85 175.888 213.565 175.745 214.109 175.459C214.654 175.173 215.052 174.78 215.302 174.28C215.561 173.771 215.69 173.191 215.69 172.538C215.69 171.922 215.561 171.346 215.302 170.81C215.052 170.265 214.654 169.828 214.109 169.497C213.565 169.167 212.85 169.001 211.966 169.001H207.92V185.829H204.557V166.322H211.966C213.475 166.322 214.757 166.59 215.811 167.126C216.874 167.653 217.682 168.385 218.236 169.323C218.79 170.252 219.067 171.315 219.067 172.512C219.067 173.771 218.79 174.852 218.236 175.754C217.682 176.656 216.874 177.348 215.811 177.831C214.757 178.313 213.475 178.554 211.966 178.554ZM237.135 166.322V185.829H233.772L225.023 171.855V185.829H221.661V166.322H225.023L233.799 180.323V166.322H237.135Z" fill="white"/>
<path d="M496.557 185.062C495.411 185.062 494.416 184.802 493.572 184.284C492.729 183.765 492.075 183.033 491.61 182.089C491.153 181.137 490.925 180.018 490.925 178.733V178.71C490.925 177.433 491.157 176.326 491.622 175.389C492.086 174.445 492.736 173.717 493.572 173.206C494.416 172.687 495.403 172.428 496.533 172.428C497.54 172.428 498.403 172.622 499.123 173.009C499.85 173.388 500.423 173.887 500.841 174.507C501.259 175.118 501.515 175.776 501.608 176.481L501.619 176.562H499.645L499.622 176.481C499.475 175.877 499.146 175.35 498.635 174.901C498.124 174.445 497.424 174.216 496.533 174.216C495.821 174.216 495.198 174.402 494.664 174.774C494.138 175.145 493.727 175.668 493.433 176.341C493.139 177.015 492.992 177.812 492.992 178.733V178.745C492.992 179.689 493.139 180.498 493.433 181.172C493.735 181.845 494.153 182.364 494.687 182.728C495.221 183.091 495.841 183.273 496.545 183.273C497.381 183.273 498.058 183.068 498.577 182.658C499.096 182.248 499.448 181.702 499.634 181.021L499.657 180.939H501.642L501.631 181.021C501.507 181.787 501.221 182.476 500.772 183.088C500.323 183.691 499.738 184.171 499.018 184.527C498.306 184.883 497.486 185.062 496.557 185.062ZM508.969 185.062C507.808 185.062 506.81 184.806 505.974 184.295C505.138 183.776 504.495 183.049 504.046 182.112C503.597 181.168 503.373 180.061 503.373 178.791V178.78C503.373 177.526 503.597 176.422 504.046 175.47C504.495 174.51 505.13 173.763 505.95 173.229C506.771 172.695 507.735 172.428 508.842 172.428C509.949 172.428 510.901 172.684 511.698 173.194C512.495 173.705 513.107 174.421 513.533 175.343C513.966 176.264 514.183 177.332 514.183 178.547V179.302H504.383V177.711H513.173L512.163 179.174V178.396C512.163 177.444 512.019 176.662 511.733 176.051C511.446 175.432 511.052 174.971 510.549 174.669C510.053 174.367 509.48 174.216 508.83 174.216C508.18 174.216 507.595 174.375 507.077 174.692C506.566 175.01 506.159 175.482 505.857 176.109C505.563 176.728 505.416 177.491 505.416 178.396V179.174C505.416 180.034 505.563 180.769 505.857 181.381C506.152 181.992 506.566 182.461 507.1 182.786C507.642 183.111 508.28 183.273 509.016 183.273C509.542 183.273 510.007 183.196 510.409 183.041C510.812 182.886 511.148 182.677 511.419 182.414C511.69 182.143 511.884 181.845 512 181.52L512.035 181.415H514.032L514.009 181.532C513.908 182.012 513.715 182.464 513.428 182.89C513.15 183.316 512.79 183.691 512.348 184.016C511.915 184.342 511.412 184.597 510.839 184.783C510.266 184.969 509.643 185.062 508.969 185.062ZM516.679 184.829V172.66H518.7V181.717H519.698L518.317 182.461L524.866 172.66H526.874V184.829H524.854V175.772H523.855L525.237 175.029L518.688 184.829H516.679ZM521.881 171.209C521.138 171.209 520.492 171.058 519.942 170.756C519.4 170.454 518.982 170.048 518.688 169.537C518.402 169.018 518.259 168.441 518.259 167.807V167.783H519.954V167.83C519.954 168.372 520.116 168.848 520.442 169.258C520.774 169.661 521.258 169.862 521.893 169.862C522.512 169.862 522.988 169.661 523.321 169.258C523.662 168.848 523.832 168.372 523.832 167.83V167.783H525.527V167.807C525.527 168.441 525.38 169.018 525.086 169.537C524.792 170.048 524.374 170.454 523.832 170.756C523.29 171.058 522.64 171.209 521.881 171.209ZM539.229 184.829H537.209V179.558H537.127C536.756 179.875 536.307 180.115 535.78 180.278C535.254 180.44 534.693 180.521 534.097 180.521C532.634 180.521 531.527 180.134 530.776 179.36C530.033 178.578 529.661 177.541 529.661 176.248V172.66H531.682V176.132C531.682 176.984 531.906 177.63 532.355 178.071C532.812 178.513 533.493 178.733 534.399 178.733C534.793 178.733 535.169 178.694 535.525 178.617C535.881 178.532 536.202 178.42 536.489 178.28C536.783 178.141 537.023 177.978 537.209 177.793V172.66H539.229V184.829ZM545.824 185.062C545.027 185.062 544.323 184.911 543.711 184.609C543.1 184.307 542.624 183.881 542.283 183.331C541.942 182.774 541.772 182.132 541.772 181.404V181.381C541.772 180.676 541.942 180.072 542.283 179.569C542.631 179.058 543.134 178.656 543.792 178.362C544.458 178.06 545.255 177.882 546.184 177.827L550.69 177.572V179.151L546.417 179.407C545.581 179.453 544.942 179.647 544.501 179.987C544.059 180.328 543.839 180.788 543.839 181.369V181.392C543.839 181.981 544.059 182.449 544.501 182.797C544.95 183.138 545.538 183.308 546.266 183.308C546.916 183.308 547.497 183.173 548.007 182.902C548.518 182.631 548.925 182.263 549.227 181.799C549.529 181.334 549.679 180.812 549.679 180.231V176.585C549.679 175.842 549.447 175.261 548.983 174.843C548.518 174.425 547.856 174.216 546.997 174.216C546.223 174.216 545.596 174.379 545.116 174.704C544.644 175.021 544.346 175.447 544.222 175.981L544.199 176.063H542.236L542.248 175.958C542.318 175.292 542.55 174.696 542.945 174.17C543.347 173.636 543.893 173.214 544.582 172.904C545.279 172.587 546.092 172.428 547.02 172.428C547.988 172.428 548.82 172.595 549.517 172.927C550.214 173.253 550.752 173.713 551.131 174.309C551.51 174.905 551.7 175.614 551.7 176.434V184.829H549.679V182.89H549.598C549.358 183.331 549.045 183.715 548.658 184.04C548.278 184.365 547.845 184.616 547.357 184.794C546.877 184.972 546.366 185.062 545.824 185.062ZM559.77 185.062C558.624 185.062 557.63 184.802 556.786 184.284C555.942 183.765 555.288 183.033 554.823 182.089C554.367 181.137 554.138 180.018 554.138 178.733V178.71C554.138 177.433 554.371 176.326 554.835 175.389C555.299 174.445 555.95 173.717 556.786 173.206C557.63 172.687 558.617 172.428 559.747 172.428C560.753 172.428 561.616 172.622 562.336 173.009C563.064 173.388 563.637 173.887 564.055 174.507C564.473 175.118 564.728 175.776 564.821 176.481L564.833 176.562H562.859L562.835 176.481C562.688 175.877 562.359 175.35 561.848 174.901C561.338 174.445 560.637 174.216 559.747 174.216C559.035 174.216 558.411 174.402 557.877 174.774C557.351 175.145 556.941 175.668 556.646 176.341C556.352 177.015 556.205 177.812 556.205 178.733V178.745C556.205 179.689 556.352 180.498 556.646 181.172C556.948 181.845 557.366 182.364 557.9 182.728C558.435 183.091 559.054 183.273 559.758 183.273C560.594 183.273 561.272 183.068 561.79 182.658C562.309 182.248 562.661 181.702 562.847 181.021L562.87 180.939H564.856L564.844 181.021C564.72 181.787 564.434 182.476 563.985 183.088C563.536 183.691 562.952 184.171 562.232 184.527C561.519 184.883 560.699 185.062 559.77 185.062Z" fill="white" fill-opacity="0.5" style="mix-blend-mode:luminosity"/>
<path d="M496.557 185.062C495.411 185.062 494.416 184.802 493.572 184.284C492.729 183.765 492.075 183.033 491.61 182.089C491.153 181.137 490.925 180.018 490.925 178.733V178.71C490.925 177.433 491.157 176.326 491.622 175.389C492.086 174.445 492.736 173.717 493.572 173.206C494.416 172.687 495.403 172.428 496.533 172.428C497.54 172.428 498.403 172.622 499.123 173.009C499.85 173.388 500.423 173.887 500.841 174.507C501.259 175.118 501.515 175.776 501.608 176.481L501.619 176.562H499.645L499.622 176.481C499.475 175.877 499.146 175.35 498.635 174.901C498.124 174.445 497.424 174.216 496.533 174.216C495.821 174.216 495.198 174.402 494.664 174.774C494.138 175.145 493.727 175.668 493.433 176.341C493.139 177.015 492.992 177.812 492.992 178.733V178.745C492.992 179.689 493.139 180.498 493.433 181.172C493.735 181.845 494.153 182.364 494.687 182.728C495.221 183.091 495.841 183.273 496.545 183.273C497.381 183.273 498.058 183.068 498.577 182.658C499.096 182.248 499.448 181.702 499.634 181.021L499.657 180.939H501.642L501.631 181.021C501.507 181.787 501.221 182.476 500.772 183.088C500.323 183.691 499.738 184.171 499.018 184.527C498.306 184.883 497.486 185.062 496.557 185.062ZM508.969 185.062C507.808 185.062 506.81 184.806 505.974 184.295C505.138 183.776 504.495 183.049 504.046 182.112C503.597 181.168 503.373 180.061 503.373 178.791V178.78C503.373 177.526 503.597 176.422 504.046 175.47C504.495 174.51 505.13 173.763 505.95 173.229C506.771 172.695 507.735 172.428 508.842 172.428C509.949 172.428 510.901 172.684 511.698 173.194C512.495 173.705 513.107 174.421 513.533 175.343C513.966 176.264 514.183 177.332 514.183 178.547V179.302H504.383V177.711H513.173L512.163 179.174V178.396C512.163 177.444 512.019 176.662 511.733 176.051C511.446 175.432 511.052 174.971 510.549 174.669C510.053 174.367 509.48 174.216 508.83 174.216C508.18 174.216 507.595 174.375 507.077 174.692C506.566 175.01 506.159 175.482 505.857 176.109C505.563 176.728 505.416 177.491 505.416 178.396V179.174C505.416 180.034 505.563 180.769 505.857 181.381C506.152 181.992 506.566 182.461 507.1 182.786C507.642 183.111 508.28 183.273 509.016 183.273C509.542 183.273 510.007 183.196 510.409 183.041C510.812 182.886 511.148 182.677 511.419 182.414C511.69 182.143 511.884 181.845 512 181.52L512.035 181.415H514.032L514.009 181.532C513.908 182.012 513.715 182.464 513.428 182.89C513.15 183.316 512.79 183.691 512.348 184.016C511.915 184.342 511.412 184.597 510.839 184.783C510.266 184.969 509.643 185.062 508.969 185.062ZM516.679 184.829V172.66H518.7V181.717H519.698L518.317 182.461L524.866 172.66H526.874V184.829H524.854V175.772H523.855L525.237 175.029L518.688 184.829H516.679ZM521.881 171.209C521.138 171.209 520.492 171.058 519.942 170.756C519.4 170.454 518.982 170.048 518.688 169.537C518.402 169.018 518.259 168.441 518.259 167.807V167.783H519.954V167.83C519.954 168.372 520.116 168.848 520.442 169.258C520.774 169.661 521.258 169.862 521.893 169.862C522.512 169.862 522.988 169.661 523.321 169.258C523.662 168.848 523.832 168.372 523.832 167.83V167.783H525.527V167.807C525.527 168.441 525.38 169.018 525.086 169.537C524.792 170.048 524.374 170.454 523.832 170.756C523.29 171.058 522.64 171.209 521.881 171.209ZM539.229 184.829H537.209V179.558H537.127C536.756 179.875 536.307 180.115 535.78 180.278C535.254 180.44 534.693 180.521 534.097 180.521C532.634 180.521 531.527 180.134 530.776 179.36C530.033 178.578 529.661 177.541 529.661 176.248V172.66H531.682V176.132C531.682 176.984 531.906 177.63 532.355 178.071C532.812 178.513 533.493 178.733 534.399 178.733C534.793 178.733 535.169 178.694 535.525 178.617C535.881 178.532 536.202 178.42 536.489 178.28C536.783 178.141 537.023 177.978 537.209 177.793V172.66H539.229V184.829ZM545.824 185.062C545.027 185.062 544.323 184.911 543.711 184.609C543.1 184.307 542.624 183.881 542.283 183.331C541.942 182.774 541.772 182.132 541.772 181.404V181.381C541.772 180.676 541.942 180.072 542.283 179.569C542.631 179.058 543.134 178.656 543.792 178.362C544.458 178.06 545.255 177.882 546.184 177.827L550.69 177.572V179.151L546.417 179.407C545.581 179.453 544.942 179.647 544.501 179.987C544.059 180.328 543.839 180.788 543.839 181.369V181.392C543.839 181.981 544.059 182.449 544.501 182.797C544.95 183.138 545.538 183.308 546.266 183.308C546.916 183.308 547.497 183.173 548.007 182.902C548.518 182.631 548.925 182.263 549.227 181.799C549.529 181.334 549.679 180.812 549.679 180.231V176.585C549.679 175.842 549.447 175.261 548.983 174.843C548.518 174.425 547.856 174.216 546.997 174.216C546.223 174.216 545.596 174.379 545.116 174.704C544.644 175.021 544.346 175.447 544.222 175.981L544.199 176.063H542.236L542.248 175.958C542.318 175.292 542.55 174.696 542.945 174.17C543.347 173.636 543.893 173.214 544.582 172.904C545.279 172.587 546.092 172.428 547.02 172.428C547.988 172.428 548.82 172.595 549.517 172.927C550.214 173.253 550.752 173.713 551.131 174.309C551.51 174.905 551.7 175.614 551.7 176.434V184.829H549.679V182.89H549.598C549.358 183.331 549.045 183.715 548.658 184.04C548.278 184.365 547.845 184.616 547.357 184.794C546.877 184.972 546.366 185.062 545.824 185.062ZM559.77 185.062C558.624 185.062 557.63 184.802 556.786 184.284C555.942 183.765 555.288 183.033 554.823 182.089C554.367 181.137 554.138 180.018 554.138 178.733V178.71C554.138 177.433 554.371 176.326 554.835 175.389C555.299 174.445 555.95 173.717 556.786 173.206C557.63 172.687 558.617 172.428 559.747 172.428C560.753 172.428 561.616 172.622 562.336 173.009C563.064 173.388 563.637 173.887 564.055 174.507C564.473 175.118 564.728 175.776 564.821 176.481L564.833 176.562H562.859L562.835 176.481C562.688 175.877 562.359 175.35 561.848 174.901C561.338 174.445 560.637 174.216 559.747 174.216C559.035 174.216 558.411 174.402 557.877 174.774C557.351 175.145 556.941 175.668 556.646 176.341C556.352 177.015 556.205 177.812 556.205 178.733V178.745C556.205 179.689 556.352 180.498 556.646 181.172C556.948 181.845 557.366 182.364 557.9 182.728C558.435 183.091 559.054 183.273 559.758 183.273C560.594 183.273 561.272 183.068 561.79 182.658C562.309 182.248 562.661 181.702 562.847 181.021L562.87 180.939H564.856L564.844 181.021C564.72 181.787 564.434 182.476 563.985 183.088C563.536 183.691 562.952 184.171 562.232 184.527C561.519 184.883 560.699 185.062 559.77 185.062Z" fill="white" style="mix-blend-mode:overlay"/>
<path d="M135.456 216.626H138.028C137.894 217.859 137.541 218.962 136.97 219.935C136.398 220.909 135.59 221.682 134.545 222.253C133.5 222.816 132.195 223.097 130.632 223.097C129.489 223.097 128.448 222.883 127.511 222.454C126.582 222.025 125.782 221.418 125.112 220.632C124.442 219.837 123.924 218.886 123.558 217.778C123.201 216.662 123.022 215.42 123.022 214.054V212.111C123.022 210.744 123.201 209.507 123.558 208.4C123.924 207.283 124.447 206.327 125.126 205.533C125.814 204.738 126.64 204.126 127.604 203.697C128.569 203.268 129.654 203.054 130.86 203.054C132.334 203.054 133.58 203.331 134.598 203.885C135.616 204.438 136.407 205.206 136.97 206.189C137.541 207.163 137.894 208.292 138.028 209.579H135.456C135.331 208.668 135.098 207.886 134.759 207.234C134.42 206.573 133.937 206.064 133.312 205.707C132.687 205.349 131.869 205.171 130.86 205.171C129.994 205.171 129.23 205.336 128.569 205.666C127.917 205.997 127.368 206.466 126.921 207.073C126.483 207.681 126.153 208.409 125.93 209.257C125.706 210.106 125.595 211.048 125.595 212.084V214.054C125.595 215.009 125.693 215.907 125.889 216.747C126.095 217.586 126.403 218.323 126.814 218.957C127.225 219.591 127.747 220.092 128.381 220.458C129.016 220.815 129.766 220.994 130.632 220.994C131.731 220.994 132.606 220.82 133.258 220.471C133.91 220.123 134.402 219.623 134.732 218.971C135.072 218.319 135.313 217.537 135.456 216.626ZM143.449 208.333V222.829H140.97V208.333H143.449ZM152.961 208.333L146.088 216.639H142.618L142.243 214.469H145.083L149.947 208.333H152.961ZM150.295 222.829L144.963 216.264L146.557 214.469L153.444 222.829H150.295ZM157.86 218.904L164.545 208.333H167.037V222.829H164.545V212.258L157.86 222.829H155.394V208.333H157.86V218.904ZM173.208 208.333H175.687L175.473 213.759C175.419 215.134 175.263 216.322 175.004 217.323C174.745 218.323 174.414 219.176 174.012 219.882C173.61 220.578 173.159 221.163 172.659 221.637C172.168 222.11 171.659 222.508 171.132 222.829H169.899L169.966 220.806L170.475 220.793C170.77 220.444 171.056 220.087 171.333 219.721C171.609 219.346 171.864 218.904 172.096 218.395C172.328 217.876 172.521 217.247 172.672 216.505C172.833 215.755 172.936 214.84 172.981 213.759L173.208 208.333ZM173.825 208.333H182.547V222.829H180.068V210.624H173.825V208.333ZM169.336 220.793H184.409V227.103H181.93V222.829H171.815V227.103H169.323L169.336 220.793ZM189.428 208.333V222.829H186.949V208.333H189.428ZM198.94 208.333L192.067 216.639H188.597L188.222 214.469H191.062L195.926 208.333H198.94ZM196.274 222.829L190.942 216.264L192.536 214.469L199.423 222.829H196.274ZM209.707 220.351V212.888C209.707 212.316 209.591 211.821 209.359 211.401C209.135 210.972 208.796 210.642 208.34 210.409C207.885 210.177 207.322 210.061 206.652 210.061C206.027 210.061 205.478 210.168 205.004 210.383C204.54 210.597 204.174 210.878 203.906 211.227C203.647 211.575 203.517 211.95 203.517 212.352H201.038C201.038 211.834 201.172 211.32 201.44 210.811C201.708 210.302 202.092 209.842 202.593 209.431C203.102 209.012 203.709 208.681 204.415 208.44C205.129 208.19 205.924 208.065 206.8 208.065C207.854 208.065 208.782 208.243 209.586 208.601C210.399 208.958 211.033 209.498 211.489 210.222C211.953 210.936 212.186 211.834 212.186 212.915V219.667C212.186 220.15 212.226 220.663 212.306 221.208C212.395 221.753 212.525 222.222 212.695 222.615V222.829H210.109C209.984 222.543 209.886 222.164 209.814 221.69C209.743 221.208 209.707 220.762 209.707 220.351ZM210.136 214.04L210.162 215.782H207.657C206.951 215.782 206.322 215.84 205.768 215.956C205.214 216.063 204.75 216.229 204.375 216.452C203.999 216.675 203.714 216.956 203.517 217.296C203.321 217.626 203.222 218.015 203.222 218.462C203.222 218.917 203.325 219.332 203.53 219.708C203.736 220.083 204.044 220.382 204.455 220.605C204.875 220.82 205.388 220.927 205.996 220.927C206.755 220.927 207.425 220.766 208.005 220.444C208.586 220.123 209.046 219.73 209.385 219.265C209.734 218.801 209.921 218.35 209.948 217.912L211.007 219.105C210.944 219.48 210.774 219.895 210.497 220.351C210.221 220.806 209.85 221.244 209.385 221.664C208.93 222.075 208.385 222.418 207.751 222.695C207.126 222.963 206.42 223.097 205.634 223.097C204.651 223.097 203.789 222.905 203.048 222.521C202.316 222.137 201.744 221.623 201.333 220.98C200.931 220.328 200.73 219.6 200.73 218.796C200.73 218.019 200.882 217.336 201.186 216.747C201.49 216.148 201.927 215.652 202.499 215.259C203.07 214.857 203.758 214.554 204.562 214.348C205.366 214.143 206.264 214.04 207.255 214.04H210.136ZM234.389 203.322V204.715L226.31 222.829H223.697L231.763 205.358H221.205V203.322H234.389ZM249.041 211.521V214.496C249.041 216.095 248.898 217.443 248.612 218.542C248.326 219.641 247.915 220.525 247.379 221.195C246.843 221.865 246.196 222.351 245.437 222.655C244.686 222.95 243.838 223.097 242.891 223.097C242.141 223.097 241.448 223.003 240.814 222.816C240.18 222.628 239.608 222.329 239.099 221.918C238.599 221.498 238.17 220.954 237.813 220.284C237.456 219.614 237.183 218.801 236.996 217.845C236.808 216.89 236.714 215.773 236.714 214.496V211.521C236.714 209.923 236.857 208.583 237.143 207.502C237.438 206.421 237.853 205.555 238.389 204.903C238.925 204.242 239.568 203.768 240.318 203.483C241.078 203.197 241.926 203.054 242.864 203.054C243.623 203.054 244.32 203.148 244.954 203.335C245.597 203.514 246.169 203.804 246.669 204.206C247.169 204.599 247.594 205.126 247.942 205.787C248.299 206.439 248.572 207.239 248.759 208.185C248.947 209.132 249.041 210.244 249.041 211.521ZM246.549 214.898V211.106C246.549 210.231 246.495 209.463 246.388 208.802C246.29 208.132 246.142 207.56 245.946 207.087C245.749 206.613 245.499 206.229 245.195 205.934C244.901 205.64 244.557 205.425 244.164 205.291C243.78 205.148 243.346 205.077 242.864 205.077C242.275 205.077 241.752 205.189 241.297 205.412C240.841 205.626 240.457 205.97 240.144 206.444C239.841 206.917 239.608 207.538 239.448 208.306C239.287 209.074 239.206 210.007 239.206 211.106V214.898C239.206 215.773 239.256 216.546 239.354 217.216C239.461 217.885 239.617 218.466 239.823 218.957C240.028 219.44 240.278 219.837 240.573 220.15C240.868 220.462 241.207 220.695 241.591 220.846C241.984 220.989 242.417 221.061 242.891 221.061C243.498 221.061 244.03 220.945 244.485 220.712C244.941 220.48 245.32 220.118 245.624 219.627C245.937 219.127 246.169 218.488 246.321 217.711C246.473 216.925 246.549 215.987 246.549 214.898ZM251.594 208.105V207.073C251.594 206.332 251.755 205.658 252.077 205.05C252.398 204.443 252.858 203.956 253.456 203.59C254.055 203.224 254.765 203.04 255.587 203.04C256.426 203.04 257.141 203.224 257.73 203.59C258.329 203.956 258.789 204.443 259.11 205.05C259.432 205.658 259.593 206.332 259.593 207.073V208.105C259.593 208.828 259.432 209.494 259.11 210.101C258.798 210.709 258.342 211.195 257.744 211.562C257.154 211.928 256.444 212.111 255.614 212.111C254.783 212.111 254.064 211.928 253.456 211.562C252.858 211.195 252.398 210.709 252.077 210.101C251.755 209.494 251.594 208.828 251.594 208.105ZM253.456 207.073V208.105C253.456 208.516 253.532 208.904 253.684 209.271C253.845 209.637 254.086 209.936 254.408 210.168C254.729 210.391 255.131 210.503 255.614 210.503C256.096 210.503 256.493 210.391 256.806 210.168C257.119 209.936 257.351 209.637 257.503 209.271C257.655 208.904 257.73 208.516 257.73 208.105V207.073C257.73 206.653 257.65 206.26 257.489 205.894C257.337 205.519 257.101 205.22 256.779 204.997C256.467 204.764 256.069 204.648 255.587 204.648C255.113 204.648 254.716 204.764 254.394 204.997C254.082 205.22 253.845 205.519 253.684 205.894C253.532 206.26 253.456 206.653 253.456 207.073ZM261.093 219.091V218.046C261.093 217.314 261.254 216.644 261.576 216.037C261.897 215.429 262.357 214.942 262.956 214.576C263.554 214.21 264.264 214.027 265.086 214.027C265.926 214.027 266.64 214.21 267.23 214.576C267.828 214.942 268.288 215.429 268.61 216.037C268.931 216.644 269.092 217.314 269.092 218.046V219.091C269.092 219.824 268.931 220.494 268.61 221.101C268.297 221.708 267.841 222.195 267.243 222.561C266.653 222.928 265.943 223.111 265.113 223.111C264.282 223.111 263.567 222.928 262.969 222.561C262.371 222.195 261.906 221.708 261.576 221.101C261.254 220.494 261.093 219.824 261.093 219.091ZM262.956 218.046V219.091C262.956 219.502 263.032 219.895 263.183 220.27C263.344 220.636 263.585 220.936 263.907 221.168C264.228 221.391 264.63 221.503 265.113 221.503C265.595 221.503 265.993 221.391 266.305 221.168C266.627 220.936 266.863 220.636 267.015 220.27C267.167 219.904 267.243 219.511 267.243 219.091V218.046C267.243 217.626 267.163 217.233 267.002 216.867C266.85 216.501 266.613 216.206 266.292 215.983C265.979 215.751 265.577 215.635 265.086 215.635C264.613 215.635 264.215 215.751 263.894 215.983C263.581 216.206 263.344 216.501 263.183 216.867C263.032 217.233 262.956 217.626 262.956 218.046ZM265.702 206.095L256.176 221.342L254.783 220.458L264.309 205.211L265.702 206.095ZM283.939 221.061C284.529 221.061 285.074 220.94 285.574 220.699C286.074 220.458 286.485 220.127 286.807 219.708C287.128 219.279 287.311 218.792 287.356 218.247H289.714C289.669 219.105 289.379 219.904 288.843 220.645C288.316 221.378 287.624 221.972 286.766 222.427C285.909 222.874 284.967 223.097 283.939 223.097C282.85 223.097 281.899 222.905 281.086 222.521C280.282 222.137 279.612 221.61 279.076 220.94C278.549 220.27 278.152 219.502 277.884 218.636C277.625 217.76 277.495 216.836 277.495 215.862V215.3C277.495 214.326 277.625 213.406 277.884 212.54C278.152 211.664 278.549 210.892 279.076 210.222C279.612 209.552 280.282 209.025 281.086 208.641C281.899 208.257 282.85 208.065 283.939 208.065C285.074 208.065 286.065 208.297 286.914 208.761C287.762 209.217 288.428 209.842 288.91 210.637C289.401 211.423 289.669 212.316 289.714 213.317H287.356C287.311 212.718 287.142 212.178 286.847 211.696C286.561 211.213 286.168 210.829 285.668 210.543C285.177 210.249 284.6 210.101 283.939 210.101C283.18 210.101 282.542 210.253 282.024 210.557C281.514 210.851 281.108 211.253 280.804 211.763C280.51 212.263 280.295 212.821 280.161 213.437C280.036 214.045 279.974 214.665 279.974 215.3V215.862C279.974 216.496 280.036 217.122 280.161 217.738C280.286 218.354 280.496 218.913 280.791 219.413C281.095 219.913 281.501 220.315 282.01 220.619C282.528 220.913 283.171 221.061 283.939 221.061ZM301.74 208.333V210.383H294.411V208.333H301.74ZM294.773 208.333V222.829H292.294V208.333H294.773ZM303.937 208.333V222.829H301.445V208.333H303.937ZM313.511 223.097C312.502 223.097 311.587 222.928 310.765 222.588C309.952 222.24 309.251 221.753 308.661 221.128C308.081 220.502 307.634 219.761 307.322 218.904C307.009 218.046 306.853 217.108 306.853 216.09V215.527C306.853 214.348 307.027 213.299 307.375 212.379C307.723 211.45 308.197 210.664 308.795 210.021C309.394 209.378 310.073 208.891 310.832 208.56C311.591 208.23 312.377 208.065 313.19 208.065C314.226 208.065 315.119 208.243 315.869 208.601C316.629 208.958 317.249 209.458 317.732 210.101C318.214 210.735 318.571 211.486 318.804 212.352C319.036 213.21 319.152 214.147 319.152 215.166V216.278H308.326V214.255H316.673V214.067C316.638 213.424 316.504 212.799 316.271 212.191C316.048 211.584 315.691 211.084 315.2 210.691C314.708 210.298 314.038 210.101 313.19 210.101C312.627 210.101 312.109 210.222 311.636 210.463C311.162 210.695 310.756 211.044 310.416 211.508C310.077 211.972 309.814 212.54 309.626 213.21C309.438 213.879 309.345 214.652 309.345 215.527V216.09C309.345 216.778 309.438 217.425 309.626 218.033C309.822 218.631 310.104 219.158 310.47 219.614C310.845 220.069 311.296 220.427 311.823 220.686C312.359 220.945 312.967 221.074 313.645 221.074C314.521 221.074 315.262 220.895 315.869 220.538C316.477 220.181 317.008 219.703 317.464 219.105L318.964 220.297C318.652 220.77 318.254 221.222 317.772 221.65C317.29 222.079 316.696 222.427 315.99 222.695C315.293 222.963 314.467 223.097 313.511 223.097ZM321.84 222.829V208.333H324.318V220.793H330.99V208.333H333.482V222.829H321.84ZM335.197 220.793L334.956 227.13H332.745V222.829H330.856V220.793H335.197ZM340.149 218.904L346.835 208.333H349.327V222.829H346.835V212.258L340.149 222.829H337.684V208.333H340.149V218.904ZM361.433 220.351V212.888C361.433 212.316 361.317 211.821 361.085 211.401C360.861 210.972 360.522 210.642 360.066 210.409C359.611 210.177 359.048 210.061 358.378 210.061C357.753 210.061 357.204 210.168 356.73 210.383C356.266 210.597 355.9 210.878 355.632 211.227C355.373 211.575 355.243 211.95 355.243 212.352H352.765C352.765 211.834 352.899 211.32 353.167 210.811C353.435 210.302 353.819 209.842 354.319 209.431C354.828 209.012 355.435 208.681 356.141 208.44C356.855 208.19 357.65 208.065 358.526 208.065C359.58 208.065 360.509 208.243 361.313 208.601C362.125 208.958 362.759 209.498 363.215 210.222C363.679 210.936 363.912 211.834 363.912 212.915V219.667C363.912 220.15 363.952 220.663 364.032 221.208C364.122 221.753 364.251 222.222 364.421 222.615V222.829H361.835C361.71 222.543 361.612 222.164 361.54 221.69C361.469 221.208 361.433 220.762 361.433 220.351ZM361.862 214.04L361.889 215.782H359.383C358.678 215.782 358.048 215.84 357.494 215.956C356.94 216.063 356.476 216.229 356.101 216.452C355.726 216.675 355.44 216.956 355.243 217.296C355.047 217.626 354.948 218.015 354.948 218.462C354.948 218.917 355.051 219.332 355.257 219.708C355.462 220.083 355.77 220.382 356.181 220.605C356.601 220.82 357.114 220.927 357.722 220.927C358.481 220.927 359.151 220.766 359.732 220.444C360.312 220.123 360.772 219.73 361.112 219.265C361.46 218.801 361.647 218.35 361.674 217.912L362.733 219.105C362.67 219.48 362.5 219.895 362.224 220.351C361.947 220.806 361.576 221.244 361.112 221.664C360.656 222.075 360.111 222.418 359.477 222.695C358.852 222.963 358.146 223.097 357.36 223.097C356.378 223.097 355.516 222.905 354.774 222.521C354.042 222.137 353.47 221.623 353.059 220.98C352.657 220.328 352.456 219.6 352.456 218.796C352.456 218.019 352.608 217.336 352.912 216.747C353.216 216.148 353.653 215.652 354.225 215.259C354.797 214.857 355.484 214.554 356.288 214.348C357.092 214.143 357.99 214.04 358.981 214.04H361.862ZM377.077 208.333V210.383H370.069V208.333H377.077ZM379.26 208.333V222.829H376.782V208.333H379.26ZM369.466 208.333H371.958L371.583 215.326C371.521 216.407 371.418 217.363 371.275 218.194C371.141 219.015 370.954 219.721 370.712 220.31C370.48 220.9 370.185 221.382 369.828 221.757C369.48 222.124 369.06 222.396 368.569 222.575C368.078 222.744 367.51 222.829 366.867 222.829H366.09V220.645L366.626 220.605C367.01 220.578 367.336 220.489 367.604 220.337C367.881 220.185 368.113 219.962 368.301 219.667C368.488 219.364 368.64 218.975 368.756 218.502C368.881 218.028 368.975 217.466 369.038 216.814C369.109 216.162 369.163 215.402 369.199 214.536L369.466 208.333ZM384.869 213.317H389.223C390.393 213.317 391.38 213.522 392.184 213.933C392.988 214.335 393.595 214.893 394.006 215.608C394.426 216.313 394.636 217.117 394.636 218.019C394.636 218.689 394.52 219.319 394.287 219.909C394.055 220.489 393.707 220.998 393.242 221.436C392.787 221.874 392.22 222.217 391.541 222.468C390.871 222.709 390.098 222.829 389.223 222.829H383.06V208.333H385.539V220.793H389.223C389.938 220.793 390.509 220.663 390.938 220.404C391.367 220.145 391.675 219.81 391.862 219.399C392.05 218.989 392.144 218.56 392.144 218.113C392.144 217.676 392.05 217.247 391.862 216.827C391.675 216.407 391.367 216.059 390.938 215.782C390.509 215.496 389.938 215.353 389.223 215.353H384.869V213.317ZM407.144 214.616V216.626H399.481V214.616H407.144ZM400.003 208.333V222.829H397.524V208.333H400.003ZM409.154 208.333V222.829H406.662V208.333H409.154ZM412.069 215.742V215.434C412.069 214.389 412.221 213.419 412.525 212.526C412.828 211.624 413.266 210.843 413.838 210.182C414.409 209.512 415.102 208.994 415.914 208.627C416.727 208.252 417.638 208.065 418.648 208.065C419.666 208.065 420.581 208.252 421.394 208.627C422.216 208.994 422.913 209.512 423.484 210.182C424.065 210.843 424.507 211.624 424.811 212.526C425.114 213.419 425.266 214.389 425.266 215.434V215.742C425.266 216.787 425.114 217.756 424.811 218.649C424.507 219.542 424.065 220.324 423.484 220.994C422.913 221.655 422.22 222.173 421.408 222.548C420.604 222.914 419.693 223.097 418.674 223.097C417.656 223.097 416.741 222.914 415.928 222.548C415.115 222.173 414.418 221.655 413.838 220.994C413.266 220.324 412.828 219.542 412.525 218.649C412.221 217.756 412.069 216.787 412.069 215.742ZM414.548 215.434V215.742C414.548 216.465 414.633 217.149 414.802 217.792C414.972 218.426 415.227 218.989 415.566 219.48C415.914 219.971 416.348 220.36 416.866 220.645C417.384 220.922 417.987 221.061 418.674 221.061C419.353 221.061 419.947 220.922 420.456 220.645C420.974 220.36 421.403 219.971 421.743 219.48C422.082 218.989 422.336 218.426 422.506 217.792C422.685 217.149 422.774 216.465 422.774 215.742V215.434C422.774 214.719 422.685 214.045 422.506 213.411C422.336 212.767 422.077 212.2 421.729 211.709C421.39 211.209 420.961 210.816 420.443 210.53C419.934 210.244 419.335 210.101 418.648 210.101C417.969 210.101 417.37 210.244 416.852 210.53C416.343 210.816 415.914 211.209 415.566 211.709C415.227 212.2 414.972 212.767 414.802 213.411C414.633 214.045 414.548 214.719 414.548 215.434ZM436.952 208.333H439.43L439.216 213.759C439.162 215.134 439.006 216.322 438.747 217.323C438.488 218.323 438.158 219.176 437.756 219.882C437.354 220.578 436.903 221.163 436.403 221.637C435.911 222.11 435.402 222.508 434.875 222.829H433.643L433.71 220.806L434.219 220.793C434.513 220.444 434.799 220.087 435.076 219.721C435.353 219.346 435.608 218.904 435.84 218.395C436.072 217.876 436.264 217.247 436.416 216.505C436.577 215.755 436.679 214.84 436.724 213.759L436.952 208.333ZM437.568 208.333H446.29V222.829H443.812V210.624H437.568V208.333ZM433.08 220.793H448.153V227.103H445.674V222.829H435.558V227.103H433.066L433.08 220.793ZM460.165 208.333V210.383H453.158V208.333H460.165ZM462.349 208.333V222.829H459.87V208.333H462.349ZM452.555 208.333H455.047L454.672 215.326C454.609 216.407 454.507 217.363 454.364 218.194C454.23 219.015 454.042 219.721 453.801 220.31C453.569 220.9 453.274 221.382 452.917 221.757C452.568 222.124 452.149 222.396 451.657 222.575C451.166 222.744 450.599 222.829 449.956 222.829H449.179V220.645L449.715 220.605C450.099 220.578 450.425 220.489 450.693 220.337C450.97 220.185 451.202 219.962 451.389 219.667C451.577 219.364 451.729 218.975 451.845 218.502C451.97 218.028 452.064 217.466 452.126 216.814C452.198 216.162 452.251 215.402 452.287 214.536L452.555 208.333ZM468.855 215.916H471.535L467.341 222.829H464.661L468.855 215.916ZM470.932 208.333H476.988V222.829H474.509V210.342H470.932C470.226 210.342 469.65 210.463 469.203 210.704C468.757 210.936 468.431 211.24 468.225 211.615C468.02 211.99 467.917 212.379 467.917 212.781C467.917 213.174 468.011 213.553 468.198 213.92C468.386 214.277 468.681 214.572 469.083 214.804C469.485 215.036 470.003 215.152 470.637 215.152H475.179V217.189H470.637C469.806 217.189 469.069 217.077 468.426 216.854C467.783 216.63 467.238 216.322 466.792 215.929C466.345 215.527 466.006 215.058 465.773 214.523C465.541 213.978 465.425 213.388 465.425 212.754C465.425 212.12 465.546 211.535 465.787 210.999C466.037 210.463 466.394 209.994 466.859 209.592C467.332 209.19 467.908 208.882 468.587 208.668C469.275 208.444 470.056 208.333 470.932 208.333ZM493.751 216.452H488.995L488.968 214.469H492.853C493.621 214.469 494.26 214.393 494.769 214.241C495.287 214.089 495.676 213.862 495.935 213.558C496.194 213.254 496.323 212.879 496.323 212.432C496.323 212.084 496.247 211.78 496.096 211.521C495.953 211.253 495.734 211.035 495.439 210.865C495.144 210.686 494.778 210.557 494.341 210.476C493.912 210.387 493.407 210.342 492.827 210.342H489.651V222.829H487.173V208.333H492.827C493.747 208.333 494.573 208.413 495.305 208.574C496.047 208.735 496.676 208.98 497.194 209.311C497.721 209.632 498.123 210.043 498.4 210.543C498.677 211.044 498.815 211.633 498.815 212.312C498.815 212.75 498.726 213.165 498.547 213.558C498.369 213.951 498.105 214.299 497.757 214.603C497.409 214.907 496.98 215.157 496.471 215.353C495.962 215.541 495.377 215.661 494.716 215.715L493.751 216.452ZM493.751 222.829H488.097L489.33 220.82H493.751C494.439 220.82 495.01 220.735 495.466 220.565C495.921 220.386 496.261 220.136 496.484 219.815C496.716 219.484 496.833 219.091 496.833 218.636C496.833 218.18 496.716 217.792 496.484 217.47C496.261 217.14 495.921 216.89 495.466 216.72C495.01 216.541 494.439 216.452 493.751 216.452H489.986L490.013 214.469H494.716L495.613 215.219C496.408 215.282 497.083 215.478 497.636 215.809C498.19 216.139 498.61 216.559 498.896 217.068C499.182 217.568 499.325 218.113 499.325 218.703C499.325 219.382 499.195 219.98 498.936 220.498C498.686 221.016 498.32 221.449 497.837 221.798C497.355 222.137 496.77 222.396 496.082 222.575C495.394 222.744 494.617 222.829 493.751 222.829ZM510.774 220.351V212.888C510.774 212.316 510.658 211.821 510.426 211.401C510.203 210.972 509.863 210.642 509.408 210.409C508.952 210.177 508.39 210.061 507.72 210.061C507.094 210.061 506.545 210.168 506.072 210.383C505.607 210.597 505.241 210.878 504.973 211.227C504.714 211.575 504.585 211.95 504.585 212.352H502.106C502.106 211.834 502.24 211.32 502.508 210.811C502.776 210.302 503.16 209.842 503.66 209.431C504.169 209.012 504.777 208.681 505.482 208.44C506.197 208.19 506.992 208.065 507.867 208.065C508.921 208.065 509.85 208.243 510.654 208.601C511.467 208.958 512.101 209.498 512.556 210.222C513.021 210.936 513.253 211.834 513.253 212.915V219.667C513.253 220.15 513.293 220.663 513.374 221.208C513.463 221.753 513.592 222.222 513.762 222.615V222.829H511.176C511.051 222.543 510.953 222.164 510.882 221.69C510.81 221.208 510.774 220.762 510.774 220.351ZM511.203 214.04L511.23 215.782H508.725C508.019 215.782 507.389 215.84 506.835 215.956C506.282 216.063 505.817 216.229 505.442 216.452C505.067 216.675 504.781 216.956 504.585 217.296C504.388 217.626 504.29 218.015 504.29 218.462C504.29 218.917 504.393 219.332 504.598 219.708C504.803 220.083 505.112 220.382 505.522 220.605C505.942 220.82 506.456 220.927 507.063 220.927C507.822 220.927 508.492 220.766 509.073 220.444C509.653 220.123 510.113 219.73 510.453 219.265C510.801 218.801 510.989 218.35 511.016 217.912L512.074 219.105C512.011 219.48 511.842 219.895 511.565 220.351C511.288 220.806 510.917 221.244 510.453 221.664C509.997 222.075 509.452 222.418 508.818 222.695C508.193 222.963 507.487 223.097 506.701 223.097C505.719 223.097 504.857 222.905 504.116 222.521C503.383 222.137 502.812 221.623 502.401 220.98C501.999 220.328 501.798 219.6 501.798 218.796C501.798 218.019 501.95 217.336 502.253 216.747C502.557 216.148 502.995 215.652 503.566 215.259C504.138 214.857 504.826 214.554 505.63 214.348C506.433 214.143 507.331 214.04 508.323 214.04H511.203ZM522.532 221.061C523.122 221.061 523.667 220.94 524.167 220.699C524.667 220.458 525.078 220.127 525.4 219.708C525.721 219.279 525.904 218.792 525.949 218.247H528.307C528.262 219.105 527.972 219.904 527.436 220.645C526.909 221.378 526.217 221.972 525.359 222.427C524.502 222.874 523.56 223.097 522.532 223.097C521.443 223.097 520.491 222.905 519.679 222.521C518.875 222.137 518.205 221.61 517.669 220.94C517.142 220.27 516.744 219.502 516.477 218.636C516.218 217.76 516.088 216.836 516.088 215.862V215.3C516.088 214.326 516.218 213.406 516.477 212.54C516.744 211.664 517.142 210.892 517.669 210.222C518.205 209.552 518.875 209.025 519.679 208.641C520.491 208.257 521.443 208.065 522.532 208.065C523.667 208.065 524.658 208.297 525.507 208.761C526.355 209.217 527.021 209.842 527.503 210.637C527.994 211.423 528.262 212.316 528.307 213.317H525.949C525.904 212.718 525.735 212.178 525.44 211.696C525.154 211.213 524.761 210.829 524.261 210.543C523.769 210.249 523.193 210.101 522.532 210.101C521.773 210.101 521.135 210.253 520.617 210.557C520.107 210.851 519.701 211.253 519.397 211.763C519.103 212.263 518.888 212.821 518.754 213.437C518.629 214.045 518.567 214.665 518.567 215.3V215.862C518.567 216.496 518.629 217.122 518.754 217.738C518.879 218.354 519.089 218.913 519.384 219.413C519.688 219.913 520.094 220.315 520.603 220.619C521.121 220.913 521.764 221.061 522.532 221.061ZM533.621 203.322L533.446 217.323H531.209L531.021 203.322H533.621ZM530.941 221.583C530.941 221.181 531.062 220.842 531.303 220.565C531.553 220.288 531.919 220.15 532.401 220.15C532.875 220.15 533.236 220.288 533.487 220.565C533.746 220.842 533.875 221.181 533.875 221.583C533.875 221.967 533.746 222.298 533.487 222.575C533.236 222.852 532.875 222.99 532.401 222.99C531.919 222.99 531.553 222.852 531.303 222.575C531.062 222.298 530.941 221.967 530.941 221.583Z" fill="white"/>
</g>
<defs>
<filter id="filter0_d_478_660" x="0.682927" y="117.585" width="614.634" height="151.829" filterUnits="userSpaceOnUse" color-interpolation-filters="sRGB">
<feFlood flood-opacity="0" result="BackgroundImageFix"/>
<feColorMatrix in="SourceAlpha" type="matrix" values="0 0 0 0 0 0 0 0 0 0 0 0 0 0 0 0 0 0 127 0" result="hardAlpha"/>
<feOffset/>
<feGaussianBlur stdDeviation="3.65854"/>
<feComposite in2="hardAlpha" operator="out"/>
<feColorMatrix type="matrix" values="0 0 0 0 0 0 0 0 0 0 0 0 0 0 0 0 0 0 0.15 0"/>
<feBlend mode="normal" in2="BackgroundImageFix" result="effect1_dropShadow_478_660"/>
<feBlend mode="normal" in="SourceGraphic" in2="effect1_dropShadow_478_660" result="shape"/>
</filter>
<filter id="filter1_d_478_660" x="60.8075" y="191.547" width="22.4338" height="12.0481" filterUnits="userSpaceOnUse" color-interpolation-filters="sRGB">
<feFlood flood-opacity="0" result="BackgroundImageFix"/>
<feColorMatrix in="SourceAlpha" type="matrix" values="0 0 0 0 0 0 0 0 0 0 0 0 0 0 0 0 0 0 127 0" result="hardAlpha"/>
<feOffset/>
<feGaussianBlur stdDeviation="0.0420441"/>
<feComposite in2="hardAlpha" operator="out"/>
<feColorMatrix type="matrix" values="0 0 0 0 0.0703924 0 0 0 0 0.34918 0 0 0 0 0.566829 0 0 0 0.2 0"/>
<feBlend mode="normal" in2="BackgroundImageFix" result="effect1_dropShadow_478_660"/>
<feBlend mode="normal" in="SourceGraphic" in2="effect1_dropShadow_478_660" result="shape"/>
</filter>
<filter id="filter2_d_478_660" x="60.5202" y="191.26" width="23.0084" height="12.6227" filterUnits="userSpaceOnUse" color-interpolation-filters="sRGB">
<feFlood flood-opacity="0" result="BackgroundImageFix"/>
<feColorMatrix in="SourceAlpha" type="matrix" values="0 0 0 0 0 0 0 0 0 0 0 0 0 0 0 0 0 0 127 0" result="hardAlpha"/>
<feOffset/>
<feGaussianBlur stdDeviation="0.185697"/>
<feComposite in2="hardAlpha" operator="out"/>
<feColorMatrix type="matrix" values="0 0 0 0 0.0703924 0 0 0 0 0.34918 0 0 0 0 0.566829 0 0 0 1 0"/>
<feBlend mode="normal" in2="BackgroundImageFix" result="effect1_dropShadow_478_660"/>
<feBlend mode="normal" in="SourceGraphic" in2="effect1_dropShadow_478_660" result="shape"/>
</filter>
<filter id="filter3_d_478_660" x="76.5241" y="200.068" width="4.50941" height="3.4235" filterUnits="userSpaceOnUse" color-interpolation-filters="sRGB">
<feFlood flood-opacity="0" result="BackgroundImageFix"/>
<feColorMatrix in="SourceAlpha" type="matrix" values="0 0 0 0 0 0 0 0 0 0 0 0 0 0 0 0 0 0 127 0" result="hardAlpha"/>
<feOffset/>
<feGaussianBlur stdDeviation="0.126132"/>
<feComposite in2="hardAlpha" operator="out"/>
<feColorMatrix type="matrix" values="0 0 0 0 0.0703924 0 0 0 0 0.34918 0 0 0 0 0.566829 0 0 0 0.2 0"/>
<feBlend mode="normal" in2="BackgroundImageFix" result="effect1_dropShadow_478_660"/>
<feBlend mode="normal" in="SourceGraphic" in2="effect1_dropShadow_478_660" result="shape"/>
</filter>
<linearGradient id="paint0_linear_478_660" x1="289.708" y1="51.7317" x2="-40.0181" y2="51.7316" gradientUnits="userSpaceOnUse">
<stop stop-color="#EEEFF0"/>
<stop offset="1" stop-color="#E5E7EB"/>
</linearGradient>
<linearGradient id="paint1_linear_478_660" x1="493.328" y1="88.3171" x2="-239.723" y2="88.3166" gradientUnits="userSpaceOnUse">
<stop stop-color="#EEEFF0"/>
<stop offset="1" stop-color="#E5E7EB"/>
</linearGradient>
<linearGradient id="paint2_linear_478_660" x1="90.3168" y1="70.0244" x2="-19.5821" y2="69.9617" gradientUnits="userSpaceOnUse">
<stop stop-color="#F9FAFB"/>
<stop offset="0.563609" stop-color="#E5E7EB"/>
</linearGradient>
<linearGradient id="paint3_linear_478_660" x1="289.708" y1="300.512" x2="-40.0181" y2="300.512" gradientUnits="userSpaceOnUse">
<stop stop-color="#EEEFF0"/>
<stop offset="1" stop-color="#E5E7EB"/>
</linearGradient>
<linearGradient id="paint4_linear_478_660" x1="493.328" y1="337.098" x2="-239.723" y2="337.097" gradientUnits="userSpaceOnUse">
<stop stop-color="#EEEFF0"/>
<stop offset="1" stop-color="#E5E7EB"/>
</linearGradient>
<linearGradient id="paint5_linear_478_660" x1="90.3168" y1="318.805" x2="-19.5821" y2="318.742" gradientUnits="userSpaceOnUse">
<stop stop-color="#F9FAFB"/>
<stop offset="0.563609" stop-color="#E5E7EB"/>
</linearGradient>
<linearGradient id="paint6_linear_478_660" x1="68.2066" y1="149.08" x2="75.6942" y2="250.449" gradientUnits="userSpaceOnUse">
<stop stop-color="white"/>
<stop offset="0.0001" stop-color="#ECF5FF"/>
<stop offset="0.952613" stop-color="#D3E8FF"/>
</linearGradient>
<linearGradient id="paint7_linear_478_660" x1="44.4852" y1="182.418" x2="101.465" y2="213.936" gradientUnits="userSpaceOnUse">
<stop stop-color="#ADD3FF"/>
<stop offset="0.465" stop-color="#1D88FF"/>
</linearGradient>
</defs>
</svg>
